<svg width="53" height="50" viewBox="0 0 53 50" fill="none" xmlns="http://www.w3.org/2000/svg">
<path d="M41.6273 23.831H35.5369C33.7939 23.831 32.1223 23.1388 30.8896 21.9066C29.6569 20.6744 28.964 19.003 28.9633 17.2601V4.5587C28.9531 3.37233 29.4097 2.22949 30.2345 1.37671C31.0593 0.52393 32.1863 0.0295289 33.3724 0.000157337C33.9586 -0.00477809 34.54 0.106444 35.083 0.327452C35.6259 0.54846 36.1198 0.874849 36.5359 1.28777C36.9521 1.70069 37.2823 2.19201 37.5075 2.73326C37.7328 3.27451 37.8485 3.85497 37.8482 4.44122V18.4771C37.8387 19.2983 38.0046 20.112 38.3345 20.864C38.6645 21.616 39.1511 22.2891 39.7618 22.8381C40.2898 23.3213 40.9316 23.6629 41.6273 23.831Z" fill="#A3DC2F"/>
<path d="M45.6922 23.4841C48.5444 23.4841 50.8566 21.172 50.8566 18.3198C50.8566 15.4676 48.5444 13.1554 45.6922 13.1554C42.84 13.1554 40.5278 15.4676 40.5278 18.3198C40.5278 21.172 42.84 23.4841 45.6922 23.4841Z" fill="#A3DC2F"/>
<path d="M28.9634 40.7708V34.6776C28.9641 32.9347 29.657 31.2634 30.8897 30.0312C32.1224 28.799 33.794 28.1068 35.5369 28.1068H48.2383C49.4246 28.0959 50.5676 28.5523 51.4201 29.3774C52.2726 30.2024 52.7662 31.3298 52.7942 32.5158C52.7991 33.102 52.6879 33.6834 52.4669 34.2264C52.2459 34.7694 51.9195 35.2632 51.5066 35.6794C51.0936 36.0955 50.6024 36.4257 50.0611 36.651C49.5198 36.8762 48.9394 36.9919 48.3531 36.9915H34.3173C33.4961 36.9825 32.6825 37.1485 31.9305 37.4784C31.1785 37.8084 30.5055 38.2948 29.9562 38.9052C29.4742 39.4341 29.1328 40.0756 28.9634 40.7708Z" fill="#A3DC2F"/>
<path d="M34.4747 49.9998C37.3269 49.9998 39.639 47.6876 39.639 44.8354C39.639 41.9832 37.3269 39.671 34.4747 39.671C31.6225 39.671 29.3103 41.9832 29.3103 44.8354C29.3103 47.6876 31.6225 49.9998 34.4747 49.9998Z" fill="#A3DC2F"/>
<path d="M11.1667 26.169H17.2599C19.0028 26.1697 20.6742 26.8626 21.9064 28.0953C23.1386 29.328 23.8308 30.9996 23.8308 32.7425V45.444C23.8308 47.902 21.8825 49.9811 19.4244 49.9998C18.8379 50.0051 18.2562 49.8941 17.7129 49.6733C17.1696 49.4524 16.6755 49.1261 16.2591 48.7131C15.8426 48.3002 15.5122 47.8087 15.2868 47.2673C15.0614 46.7259 14.9455 46.1452 14.9459 45.5587V31.5228C14.9558 30.702 14.7902 29.8885 14.4602 29.1368C14.1302 28.3852 13.6433 27.7127 13.0323 27.1645C12.5042 26.681 11.8625 26.3385 11.1667 26.169Z" fill="#A3DC2F"/>
<path d="M7.10211 36.8447C9.95431 36.8447 12.2665 34.5325 12.2665 31.6803C12.2665 28.8281 9.95431 26.5159 7.10211 26.5159C4.24991 26.5159 1.93774 28.8281 1.93774 31.6803C1.93774 34.5325 4.24991 36.8447 7.10211 36.8447Z" fill="#A3DC2F"/>
<path d="M23.8283 9.23199V15.3224C23.8283 17.0654 23.1361 18.737 21.9039 19.9697C20.6717 21.2024 19.0004 21.8953 17.2574 21.896H4.5587C3.37233 21.9062 2.22949 21.4496 1.37671 20.6248C0.52393 19.7999 0.0295288 18.673 0.000157293 17.487C-0.00477813 16.9007 0.106477 16.3193 0.327485 15.7763C0.548493 15.2333 0.874881 14.7395 1.2878 14.3233C1.70072 13.9072 2.19201 13.577 2.73326 13.3518C3.27451 13.1265 3.85501 13.0108 4.44125 13.0112H18.4905C19.3116 13.0206 20.1254 12.8547 20.8774 12.5248C21.6294 12.1948 22.3024 11.7083 22.8515 11.0976C23.3288 10.5678 23.6648 9.92613 23.8283 9.23199Z" fill="#A3DC2F"/>
<path d="M18.3196 10.329C21.1718 10.329 23.484 8.01681 23.484 5.16461C23.484 2.31241 21.1718 0.000244141 18.3196 0.000244141C15.4674 0.000244141 13.1553 2.31241 13.1553 5.16461C13.1553 8.01681 15.4674 10.329 18.3196 10.329Z" fill="#A3DC2F"/>
</svg>
