<svg width="255" height="50" viewBox="0 0 255 50" fill="none" xmlns="http://www.w3.org/2000/svg">
<path d="M41.6273 23.831H35.5369C33.7939 23.831 32.1223 23.1388 30.8896 21.9066C29.6569 20.6744 28.964 19.003 28.9633 17.2601V4.5587C28.9531 3.37233 29.4097 2.22949 30.2345 1.37671C31.0593 0.52393 32.1863 0.0295289 33.3724 0.000157337C33.9586 -0.00477809 34.54 0.106444 35.083 0.327452C35.6259 0.54846 36.1198 0.874849 36.5359 1.28777C36.9521 1.70069 37.2823 2.19201 37.5075 2.73326C37.7328 3.27451 37.8485 3.85497 37.8482 4.44122V18.4771C37.8387 19.2983 38.0046 20.112 38.3345 20.864C38.6645 21.616 39.1511 22.2891 39.7618 22.8381C40.2898 23.3213 40.9316 23.6629 41.6273 23.831Z" fill="#A3DC2F"/>
<path d="M45.6922 23.4841C48.5444 23.4841 50.8566 21.172 50.8566 18.3198C50.8566 15.4676 48.5444 13.1554 45.6922 13.1554C42.84 13.1554 40.5278 15.4676 40.5278 18.3198C40.5278 21.172 42.84 23.4841 45.6922 23.4841Z" fill="#A3DC2F"/>
<path d="M28.9634 40.7708V34.6776C28.9641 32.9347 29.657 31.2634 30.8897 30.0312C32.1224 28.799 33.794 28.1068 35.5369 28.1068H48.2383C49.4246 28.0959 50.5676 28.5523 51.4201 29.3774C52.2726 30.2024 52.7662 31.3298 52.7942 32.5158C52.7991 33.102 52.6879 33.6834 52.4669 34.2264C52.2459 34.7694 51.9195 35.2632 51.5066 35.6794C51.0936 36.0955 50.6024 36.4257 50.0611 36.651C49.5198 36.8762 48.9394 36.9919 48.3531 36.9915H34.3173C33.4961 36.9825 32.6825 37.1485 31.9305 37.4784C31.1785 37.8084 30.5055 38.2948 29.9562 38.9052C29.4742 39.4341 29.1328 40.0756 28.9634 40.7708Z" fill="#A3DC2F"/>
<path d="M34.4747 49.9998C37.3269 49.9998 39.639 47.6876 39.639 44.8354C39.639 41.9832 37.3269 39.671 34.4747 39.671C31.6225 39.671 29.3103 41.9832 29.3103 44.8354C29.3103 47.6876 31.6225 49.9998 34.4747 49.9998Z" fill="#A3DC2F"/>
<path d="M11.1667 26.169H17.2599C19.0028 26.1697 20.6742 26.8626 21.9064 28.0953C23.1386 29.328 23.8308 30.9996 23.8308 32.7425V45.444C23.8308 47.902 21.8825 49.9811 19.4244 49.9998C18.8379 50.0051 18.2562 49.8941 17.7129 49.6733C17.1696 49.4524 16.6755 49.1261 16.2591 48.7131C15.8426 48.3002 15.5122 47.8087 15.2868 47.2673C15.0614 46.7259 14.9455 46.1452 14.9459 45.5587V31.5228C14.9558 30.702 14.7902 29.8885 14.4602 29.1368C14.1302 28.3852 13.6433 27.7127 13.0323 27.1645C12.5042 26.681 11.8625 26.3385 11.1667 26.169Z" fill="#A3DC2F"/>
<path d="M7.10211 36.8447C9.95431 36.8447 12.2665 34.5325 12.2665 31.6803C12.2665 28.8281 9.95431 26.5159 7.10211 26.5159C4.24991 26.5159 1.93774 28.8281 1.93774 31.6803C1.93774 34.5325 4.24991 36.8447 7.10211 36.8447Z" fill="#A3DC2F"/>
<path d="M23.8283 9.23199V15.3224C23.8283 17.0654 23.1361 18.737 21.9039 19.9697C20.6717 21.2024 19.0004 21.8953 17.2574 21.896H4.5587C3.37233 21.9062 2.22949 21.4496 1.37671 20.6248C0.52393 19.7999 0.0295288 18.673 0.000157293 17.487C-0.00477813 16.9007 0.106477 16.3193 0.327485 15.7763C0.548493 15.2333 0.874881 14.7395 1.2878 14.3233C1.70072 13.9072 2.19201 13.577 2.73326 13.3518C3.27451 13.1265 3.85501 13.0108 4.44125 13.0112H18.4905C19.3116 13.0206 20.1254 12.8547 20.8774 12.5248C21.6294 12.1948 22.3024 11.7083 22.8515 11.0976C23.3288 10.5678 23.6648 9.92613 23.8283 9.23199Z" fill="#A3DC2F"/>
<path d="M18.3196 10.329C21.1718 10.329 23.484 8.01681 23.484 5.16461C23.484 2.31241 21.1718 0.000244141 18.3196 0.000244141C15.4674 0.000244141 13.1553 2.31241 13.1553 5.16461C13.1553 8.01681 15.4674 10.329 18.3196 10.329Z" fill="#A3DC2F"/>
<path d="M97.2543 20.3139H93.4872C93.3423 19.509 93.0727 18.8007 92.6783 18.1889C92.2839 17.5772 91.8009 17.058 91.2294 16.6314C90.6579 16.2048 90.018 15.8828 89.3097 15.6655C88.6094 15.4482 87.8648 15.3395 87.076 15.3395C85.6513 15.3395 84.3755 15.6977 83.2486 16.4141C82.1297 17.1304 81.2443 18.1809 80.5923 19.5653C79.9484 20.9498 79.6264 22.6402 79.6264 24.6364C79.6264 26.6487 79.9484 28.3471 80.5923 29.7315C81.2443 31.116 82.1338 32.1624 83.2607 32.8707C84.3875 33.5791 85.6553 33.9332 87.0639 33.9332C87.8447 33.9332 88.5852 33.8286 89.2855 33.6193C89.9938 33.402 90.6338 33.084 91.2053 32.6655C91.7768 32.2469 92.2597 31.7358 92.6541 31.1321C93.0566 30.5204 93.3343 29.8201 93.4872 29.0312L97.2543 29.0433C97.053 30.2588 96.6626 31.3776 96.0831 32.3999C95.5116 33.4141 94.7751 34.2914 93.8736 35.032C92.9801 35.7644 91.9579 36.3319 90.8068 36.7344C89.6558 37.1368 88.4001 37.3381 87.0398 37.3381C84.8987 37.3381 82.991 36.831 81.3168 35.8168C79.6425 34.7945 78.3224 33.3336 77.3565 31.4339C76.3987 29.5343 75.9197 27.2685 75.9197 24.6364C75.9197 21.9962 76.4027 19.7303 77.3686 17.8388C78.3345 15.9392 79.6546 14.4822 81.3288 13.468C83.0031 12.4458 84.9067 11.9347 87.0398 11.9347C88.3518 11.9347 89.5753 12.1238 90.7102 12.5021C91.8532 12.8724 92.8795 13.4197 93.7891 14.1442C94.6986 14.8606 95.4512 15.7379 96.0469 16.7763C96.6425 17.8066 97.045 18.9858 97.2543 20.3139ZM101.429 37V18.4545H104.918V21.4006H105.111C105.449 20.4025 106.045 19.6177 106.898 19.0462C107.76 18.4666 108.733 18.1768 109.82 18.1768C110.046 18.1768 110.311 18.1849 110.617 18.201C110.931 18.2171 111.176 18.2372 111.354 18.2614V21.7145C111.209 21.6742 110.951 21.63 110.581 21.5817C110.211 21.5253 109.84 21.4972 109.47 21.4972C108.617 21.4972 107.856 21.6783 107.188 22.0405C106.528 22.3946 106.005 22.8897 105.618 23.5256C105.232 24.1534 105.039 24.8698 105.039 25.6747V37H101.429ZM117.324 43.9545C116.785 43.9545 116.294 43.9103 115.851 43.8217C115.408 43.7412 115.078 43.6527 114.861 43.5561L115.73 40.598C116.39 40.7751 116.978 40.8516 117.493 40.8274C118.008 40.8033 118.463 40.6101 118.857 40.2479C119.26 39.8857 119.614 39.294 119.92 38.473L120.367 37.2415L113.581 18.4545H117.445L122.142 32.8466H122.335L127.031 18.4545H130.907L123.264 39.4751C122.91 40.4411 122.459 41.258 121.912 41.9261C121.365 42.6023 120.713 43.1094 119.956 43.4474C119.2 43.7855 118.322 43.9545 117.324 43.9545ZM134.3 43.9545V18.4545H137.825V21.4609H138.127C138.337 21.0746 138.638 20.6278 139.033 20.1207C139.427 19.6136 139.975 19.1709 140.675 18.7926C141.375 18.4062 142.301 18.2131 143.452 18.2131C144.949 18.2131 146.285 18.5914 147.46 19.348C148.636 20.1046 149.557 21.1953 150.225 22.62C150.901 24.0447 151.24 25.7592 151.24 27.7635C151.24 29.7678 150.905 31.4863 150.237 32.919C149.569 34.3437 148.652 35.4425 147.485 36.2152C146.317 36.9799 144.985 37.3622 143.488 37.3622C142.361 37.3622 141.44 37.1731 140.723 36.7947C140.015 36.4164 139.459 35.9737 139.057 35.4666C138.655 34.9595 138.345 34.5088 138.127 34.1143H137.91V43.9545H134.3ZM137.838 27.7273C137.838 29.0312 138.027 30.1742 138.405 31.1562C138.783 32.1383 139.331 32.907 140.047 33.4624C140.763 34.0097 141.641 34.2834 142.679 34.2834C143.758 34.2834 144.659 33.9976 145.384 33.4261C146.108 32.8466 146.655 32.0618 147.026 31.0717C147.404 30.0817 147.593 28.9669 147.593 27.7273C147.593 26.5038 147.408 25.4051 147.038 24.4311C146.676 23.4571 146.128 22.6884 145.396 22.125C144.671 21.5616 143.766 21.2798 142.679 21.2798C141.633 21.2798 140.747 21.5495 140.023 22.0888C139.307 22.6281 138.763 23.3807 138.393 24.3466C138.023 25.3125 137.838 26.4394 137.838 27.7273ZM163.941 18.4545V21.3523H153.811V18.4545H163.941ZM156.528 14.0114H160.138V31.5547C160.138 32.255 160.243 32.7822 160.452 33.1364C160.661 33.4825 160.931 33.7199 161.261 33.8487C161.599 33.9695 161.965 34.0298 162.36 34.0298C162.649 34.0298 162.903 34.0097 163.12 33.9695C163.338 33.9292 163.507 33.897 163.627 33.8729L164.279 36.8551C164.07 36.9356 163.772 37.0161 163.386 37.0966C162.999 37.1851 162.517 37.2334 161.937 37.2415C160.987 37.2576 160.102 37.0885 159.281 36.7344C158.46 36.3802 157.796 35.8329 157.289 35.0923C156.781 34.3518 156.528 33.4221 156.528 32.3033V14.0114ZM177.222 37V12.2727H180.953V33.7884H192.158V37H177.222ZM201.521 37.4105C200.346 37.4105 199.283 37.1932 198.334 36.7585C197.384 36.3158 196.631 35.6759 196.076 34.8388C195.528 34.0017 195.255 32.9754 195.255 31.7599C195.255 30.7135 195.456 29.8523 195.858 29.1761C196.261 28.5 196.804 27.9647 197.488 27.5703C198.173 27.1759 198.937 26.8781 199.782 26.6768C200.628 26.4756 201.489 26.3227 202.366 26.218C203.477 26.0893 204.379 25.9846 205.071 25.9041C205.763 25.8156 206.266 25.6747 206.58 25.4815C206.894 25.2884 207.051 24.9744 207.051 24.5398V24.4553C207.051 23.4008 206.753 22.5838 206.157 22.0043C205.57 21.4247 204.693 21.1349 203.525 21.1349C202.31 21.1349 201.352 21.4046 200.652 21.9439C199.96 22.4751 199.481 23.0668 199.215 23.7188L195.822 22.946C196.225 21.8191 196.812 20.9096 197.585 20.2173C198.366 19.517 199.263 19.0099 200.278 18.696C201.292 18.3741 202.358 18.2131 203.477 18.2131C204.218 18.2131 205.002 18.3016 205.831 18.4787C206.669 18.6477 207.449 18.9616 208.174 19.4205C208.906 19.8793 209.506 20.5353 209.973 21.3885C210.44 22.2337 210.673 23.3324 210.673 24.6847V37H207.148V34.4645H207.003C206.769 34.9313 206.419 35.3902 205.952 35.8409C205.485 36.2917 204.886 36.666 204.153 36.9638C203.421 37.2616 202.543 37.4105 201.521 37.4105ZM202.306 34.5128C203.304 34.5128 204.157 34.3156 204.866 33.9212C205.582 33.5268 206.125 33.0116 206.496 32.3757C206.874 31.7318 207.063 31.0436 207.063 30.3111V27.9205C206.934 28.0492 206.685 28.17 206.314 28.2827C205.952 28.3873 205.538 28.4799 205.071 28.5604C204.604 28.6328 204.149 28.7012 203.706 28.7656C203.264 28.822 202.894 28.8703 202.596 28.9105C201.895 28.9991 201.256 29.148 200.676 29.3572C200.104 29.5665 199.646 29.8684 199.3 30.2628C198.961 30.6491 198.792 31.1643 198.792 31.8082C198.792 32.7017 199.122 33.3778 199.782 33.8366C200.443 34.2874 201.284 34.5128 202.306 34.5128ZM219.092 25.9886V37H215.482V18.4545H218.947V21.473H219.176C219.603 20.491 220.271 19.7022 221.18 19.1065C222.098 18.5109 223.253 18.2131 224.646 18.2131C225.909 18.2131 227.016 18.4787 227.966 19.0099C228.916 19.5331 229.652 20.3139 230.175 21.3523C230.699 22.3906 230.96 23.6745 230.96 25.2038V37H227.35V25.6385C227.35 24.2943 227 23.2438 226.3 22.4872C225.599 21.7225 224.638 21.3402 223.414 21.3402C222.577 21.3402 221.832 21.5213 221.18 21.8835C220.536 22.2457 220.025 22.777 219.647 23.4773C219.277 24.1695 219.092 25.0066 219.092 25.9886ZM242.744 37.3622C241.247 37.3622 239.911 36.9799 238.736 36.2152C237.569 35.4425 236.651 34.3437 235.983 32.919C235.323 31.4863 234.993 29.7678 234.993 27.7635C234.993 25.7592 235.327 24.0447 235.995 22.62C236.671 21.1953 237.597 20.1046 238.772 19.348C239.947 18.5914 241.279 18.2131 242.768 18.2131C243.92 18.2131 244.845 18.4062 245.545 18.7926C246.254 19.1709 246.801 19.6136 247.188 20.1207C247.582 20.6278 247.888 21.0746 248.105 21.4609H248.322V12.2727H251.933V37H248.407V34.1143H248.105C247.888 34.5088 247.574 34.9595 247.163 35.4666C246.761 35.9737 246.205 36.4164 245.497 36.7947C244.789 37.1731 243.871 37.3622 242.744 37.3622ZM243.541 34.2834C244.58 34.2834 245.457 34.0097 246.173 33.4624C246.898 32.907 247.445 32.1383 247.815 31.1562C248.194 30.1742 248.383 29.0312 248.383 27.7273C248.383 26.4394 248.198 25.3125 247.827 24.3466C247.457 23.3807 246.914 22.6281 246.197 22.0888C245.481 21.5495 244.596 21.2798 243.541 21.2798C242.455 21.2798 241.549 21.5616 240.825 22.125C240.1 22.6884 239.553 23.4571 239.183 24.4311C238.82 25.4051 238.639 26.5038 238.639 27.7273C238.639 28.9669 238.824 30.0817 239.195 31.0717C239.565 32.0618 240.112 32.8466 240.837 33.4261C241.569 33.9976 242.471 34.2834 243.541 34.2834Z" fill="white"/>
</svg>
